REM DIRINDEX 1\2\4,1\2\5,1\2\6,1\3\7,1\3\8,1\3\9,1\3\10
REM DIRNAME folder01,folder02,folder03,folder04,folder05,folder06,folder07,folder08,folder09,folder10
TITLE ""
FILE "b_76.mp3" MP3
  TRACK 01 AUDIO
    TITLE "0:"
    INDEX 01 00:00:00
  TRACK 02 AUDIO
    TITLE "10:cjc058_5240"
    INDEX 01 00:00:15
  TRACK 03 AUDIO
    TITLE "0:"
    INDEX 01 00:03:19
  TRACK 04 AUDIO
    TITLE "7:cjc058_5241"
    INDEX 01 00:03:66
  TRACK 05 AUDIO
    TITLE "0:"
    INDEX 01 00:05:32
  TRACK 06 AUDIO
    TITLE "8:cjc058_5242"
    INDEX 01 00:05:67
  TRACK 07 AUDIO
    TITLE "0:"
    INDEX 01 00:07:41
  TRACK 08 AUDIO
    TITLE "9:cjc058_5243"
    INDEX 01 00:08:13
  TRACK 09 AUDIO
    TITLE "0:"
    INDEX 01 00:10:33
  TRACK 10 AUDIO
    TITLE "7:cjc058_5244"
    INDEX 01 00:11:42
  TRACK 11 AUDIO
    TITLE "0:"
    INDEX 01 00:12:65
  TRACK 12 AUDIO
    TITLE "8:cjc058_5245"
    INDEX 01 00:13:26
  TRACK 13 AUDIO
    TITLE "0:"
    INDEX 01 00:15:05
  TRACK 14 AUDIO
    TITLE "9:cjc058_5246"
    INDEX 01 00:15:54
  TRACK 15 AUDIO
    TITLE "0:"
    INDEX 01 00:19:38
  TRACK 16 AUDIO
    TITLE "7:cjc058_5247"
    INDEX 01 00:20:51
  TRACK 17 AUDIO
    TITLE "0:"
    INDEX 01 00:22:29
  TRACK 18 AUDIO
    TITLE "8:cjc058_5248"
    INDEX 01 00:22:64
  TRACK 19 AUDIO
    TITLE "0:"
    INDEX 01 00:24:39
  TRACK 20 AUDIO
    TITLE "9:cjc058_5249"
    INDEX 01 00:25:13
  TRACK 21 AUDIO
    TITLE "0:"
    INDEX 01 00:27:26
  TRACK 22 AUDIO
    TITLE "7:cjc058_5250"
    INDEX 01 00:28:37
  TRACK 23 AUDIO
    TITLE "0:"
    INDEX 01 00:29:58
  TRACK 24 AUDIO
    TITLE "8:cjc058_5251"
    INDEX 01 00:30:18
  TRACK 25 AUDIO
    TITLE "0:"
    INDEX 01 00:31:59
  TRACK 26 AUDIO
    TITLE "9:cjc058_5252"
    INDEX 01 00:32:29
  TRACK 27 AUDIO
    TITLE "0:"
    INDEX 01 00:35:27
  TRACK 28 AUDIO
    TITLE "7:cjc058_5253"
    INDEX 01 00:36:36
  TRACK 29 AUDIO
    TITLE "0:"
    INDEX 01 00:37:61
  TRACK 30 AUDIO
    TITLE "8:cjc058_5254"
    INDEX 01 00:38:20
  TRACK 31 AUDIO
    TITLE "0:"
    INDEX 01 00:39:29
  TRACK 32 AUDIO
    TITLE "9:cjc058_5255"
    INDEX 01 00:40:01
  TRACK 33 AUDIO
    TITLE "0:"
    INDEX 01 00:43:58
  TRACK 34 AUDIO
    TITLE "7:cjc058_5256"
    INDEX 01 00:44:67
  TRACK 35 AUDIO
    TITLE "0:"
    INDEX 01 00:46:11
  TRACK 36 AUDIO
    TITLE "8:cjc058_5257"
    INDEX 01 00:46:45
  TRACK 37 AUDIO
    TITLE "0:"
    INDEX 01 00:48:10
  TRACK 38 AUDIO
    TITLE "9:cjc058_5258"
    INDEX 01 00:48:57
  TRACK 39 AUDIO
    TITLE "0:"
    INDEX 01 00:50:48
  TRACK 40 AUDIO
    TITLE "7:cjc058_5259"
    INDEX 01 00:51:54
  TRACK 41 AUDIO
    TITLE "0:"
    INDEX 01 00:53:09
  TRACK 42 AUDIO
    TITLE "8:cjc058_5260"
    INDEX 01 00:53:45
  TRACK 43 AUDIO
    TITLE "0:"
    INDEX 01 00:54:68
  TRACK 44 AUDIO
    TITLE "9:cjc058_5261"
    INDEX 01 00:55:36
  TRACK 45 AUDIO
    TITLE "0:"
    INDEX 01 01:00:08
  TRACK 46 AUDIO
    TITLE "7:cjc058_5262"
    INDEX 01 01:01:19
  TRACK 47 AUDIO
    TITLE "0:"
    INDEX 01 01:02:44
  TRACK 48 AUDIO
    TITLE "8:cjc058_5263"
    INDEX 01 01:03:04
  TRACK 49 AUDIO
    TITLE "0:"
    INDEX 01 01:05:05
  TRACK 50 AUDIO
    TITLE "9:cjc058_5264"
    INDEX 01 01:05:52
  TRACK 51 AUDIO
    TITLE "0:"
    INDEX 01 01:07:15
  TRACK 52 AUDIO
    TITLE "7:cjc058_5265"
    INDEX 01 01:08:25
  TRACK 53 AUDIO
    TITLE "0:"
    INDEX 01 01:09:32
  TRACK 54 AUDIO
    TITLE "8:cjc058_5266"
    INDEX 01 01:09:67
  TRACK 55 AUDIO
    TITLE "0:"
    INDEX 01 01:11:68
  TRACK 56 AUDIO
    TITLE "9:cjc058_5267"
    INDEX 01 01:12:42
  TRACK 57 AUDIO
    TITLE "0:"
    INDEX 01 01:14:31
  TRACK 58 AUDIO
    TITLE "7:cjc058_5268"
    INDEX 01 01:15:39
  TRACK 59 AUDIO
    TITLE "0:"
    INDEX 01 01:16:50
  TRACK 60 AUDIO
    TITLE "8:cjc058_5269"
    INDEX 01 01:17:08
  TRACK 61 AUDIO
    TITLE "0:"
    INDEX 01 01:18:09
  TRACK 62 AUDIO
    TITLE "9:cjc058_5270"
    INDEX 01 01:18:54
  TRACK 63 AUDIO
    TITLE "0:"
    INDEX 01 01:20:34
  TRACK 64 AUDIO
    TITLE "7:cjc058_5271"
    INDEX 01 01:21:41
  TRACK 65 AUDIO
    TITLE "0:"
    INDEX 01 01:22:64
  TRACK 66 AUDIO
    TITLE "8:cjc058_5272"
    INDEX 01 01:23:26
  TRACK 67 AUDIO
    TITLE "0:"
    INDEX 01 01:26:64
  TRACK 68 AUDIO
    TITLE "9:cjc058_5273"
    INDEX 01 01:27:34
  TRACK 69 AUDIO
    TITLE "0:"
    INDEX 01 01:30:01
  TRACK 70 AUDIO
    TITLE "7:cjc058_5274"
    INDEX 01 01:31:14
  TRACK 71 AUDIO
    TITLE "0:"
    INDEX 01 01:32:31
  TRACK 72 AUDIO
    TITLE "8:cjc058_5275"
    INDEX 01 01:32:68
  TRACK 73 AUDIO
    TITLE "0:"
    INDEX 01 01:34:71
  TRACK 74 AUDIO
    TITLE "9:cjc058_5276"
    INDEX 01 01:35:43
  TRACK 75 AUDIO
    TITLE "0:"
    INDEX 01 01:37:69
  TRACK 76 AUDIO
    TITLE "7:cjc058_5277"
    INDEX 01 01:39:06
  TRACK 77 AUDIO
    TITLE "0:"
    INDEX 01 01:40:19
  TRACK 78 AUDIO
    TITLE "8:cjc058_5278"
    INDEX 01 01:40:54
  TRACK 79 AUDIO
    TITLE "0:"
    INDEX 01 01:43:05
  TRACK 80 AUDIO
    TITLE "9:cjc058_5279"
    INDEX 01 01:43:54
  TRACK 81 AUDIO
    TITLE "0:"
    INDEX 01 01:45:38
  TRACK 82 AUDIO
    TITLE "7:cjc058_5280"
    INDEX 01 01:46:47
  TRACK 83 AUDIO
    TITLE "0:"
    INDEX 01 01:48:44
  TRACK 84 AUDIO
    TITLE "8:cjc058_5281"
    INDEX 01 01:49:00
  TRACK 85 AUDIO
    TITLE "0:"
    INDEX 01 01:52:40
  TRACK 86 AUDIO
    TITLE "9:cjc058_5282"
    INDEX 01 01:53:14
  TRACK 87 AUDIO
    TITLE "0:"
    INDEX 01 01:58:62
  TRACK 88 AUDIO
    TITLE "7:cjc058_5283"
    INDEX 01 01:59:69
  TRACK 89 AUDIO
    TITLE "0:"
    INDEX 01 02:01:23
  TRACK 90 AUDIO
    TITLE "8:cjc058_5284"
    INDEX 01 02:01:58
  TRACK 91 AUDIO
    TITLE "0:"
    INDEX 01 02:03:67
  TRACK 92 AUDIO
    TITLE "9:cjc058_5285"
    INDEX 01 02:04:41
  TRACK 93 AUDIO
    TITLE "0:"
    INDEX 01 02:07:53
  TRACK 94 AUDIO
    TITLE "7:cjc058_5286"
    INDEX 01 02:08:68
  TRACK 95 AUDIO
    TITLE "0:"
    INDEX 01 02:10:28
  TRACK 96 AUDIO
    TITLE "8:cjc058_5287"
    INDEX 01 02:10:65
  TRACK 97 AUDIO
    TITLE "0:"
    INDEX 01 02:12:29
  TRACK 98 AUDIO
    TITLE "9:cjc058_5288"
    INDEX 01 02:13:01
  TRACK 99 AUDIO
    TITLE "0:"
    INDEX 01 02:15:07
  TRACK 100 AUDIO
    TITLE "7:cjc058_5289"
    INDEX 01 02:16:17
  TRACK 101 AUDIO
    TITLE "0:"
    INDEX 01 02:17:34
  TRACK 102 AUDIO
    TITLE "8:cjc058_5290"
    INDEX 01 02:17:71
  TRACK 103 AUDIO
    TITLE "0:"
    INDEX 01 02:20:56
  TRACK 104 AUDIO
    TITLE "9:cjc058_5291"
    INDEX 01 02:21:30
  TRACK 105 AUDIO
    TITLE "0:"
    INDEX 01 02:23:50
  TRACK 106 AUDIO
    TITLE "7:cjc058_5292"
    INDEX 01 02:24:61
  TRACK 107 AUDIO
    TITLE "0:"
    INDEX 01 02:26:25
  TRACK 108 AUDIO
    TITLE "8:cjc058_5293"
    INDEX 01 02:26:62
  TRACK 109 AUDIO
    TITLE "0:"
    INDEX 01 02:28:20
  TRACK 110 AUDIO
    TITLE "9:cjc058_5294"
    INDEX 01 02:28:67
  TRACK 111 AUDIO
    TITLE "0:"
    INDEX 01 02:31:50
  TRACK 112 AUDIO
    TITLE "7:cjc058_5295"
    INDEX 01 02:32:59
  TRACK 113 AUDIO
    TITLE "0:"
    INDEX 01 02:34:38
  TRACK 114 AUDIO
    TITLE "8:cjc058_5296"
    INDEX 01 02:34:71
  TRACK 115 AUDIO
    TITLE "0:"
    INDEX 01 02:36:35
  TRACK 116 AUDIO
    TITLE "9:cjc058_5297"
    INDEX 01 02:37:09
  TRACK 117 AUDIO
    TITLE "0:"
    INDEX 01 02:38:69
  TRACK 118 AUDIO
    TITLE "7:cjc058_5298"
    INDEX 01 02:40:01
  TRACK 119 AUDIO
    TITLE "0:"
    INDEX 01 02:41:69
  TRACK 120 AUDIO
    TITLE "8:cjc058_5299"
    INDEX 01 02:42:28
  TRACK 121 AUDIO
    TITLE "0:"
    INDEX 01 02:44:23
  TRACK 122 AUDIO
    TITLE "9:cjc058_5300"
    INDEX 01 02:44:72
  TRACK 123 AUDIO
    TITLE "0:"
    INDEX 01 02:48:30
  TRACK 124 AUDIO
    TITLE "7:cjc058_5301"
    INDEX 01 02:49:36
  TRACK 125 AUDIO
    TITLE "0:"
    INDEX 01 02:50:65
  TRACK 126 AUDIO
    TITLE "8:cjc058_5302"
    INDEX 01 02:51:25
  TRACK 127 AUDIO
    TITLE "0:"
    INDEX 01 02:54:51
  TRACK 128 AUDIO
    TITLE "9:cjc058_5303"
    INDEX 01 02:55:23
  TRACK 129 AUDIO
    TITLE "0:"
    INDEX 01 02:58:11
  TRACK 130 AUDIO
    TITLE "7:cjc058_5304"
    INDEX 01 02:59:20
  TRACK 131 AUDIO
    TITLE "0:"
    INDEX 01 03:00:36
  TRACK 132 AUDIO
    TITLE "8:cjc058_5305"
    INDEX 01 03:00:71
  TRACK 133 AUDIO
    TITLE "0:"
    INDEX 01 03:02:25
  TRACK 134 AUDIO
    TITLE "9:cjc058_5306"
    INDEX 01 03:03:01
  TRACK 135 AUDIO
    TITLE "0:"
    INDEX 01 03:05:74
  TRACK 136 AUDIO
    TITLE "7:cjc058_5307"
    INDEX 01 03:07:08
  TRACK 137 AUDIO
    TITLE "0:"
    INDEX 01 03:08:27
  TRACK 138 AUDIO
    TITLE "8:cjc058_5308"
    INDEX 01 03:08:59
  TRACK 139 AUDIO
    TITLE "0:"
    INDEX 01 03:10:18
  TRACK 140 AUDIO
    TITLE "9:cjc058_5309"
    INDEX 01 03:10:65
  TRACK 141 AUDIO
    TITLE "0:"
    INDEX 01 03:12:62
  TRACK 142 AUDIO
    TITLE "7:cjc058_5310"
    INDEX 01 03:14:00
  TRACK 143 AUDIO
    TITLE "0:"
    INDEX 01 03:15:23
  TRACK 144 AUDIO
    TITLE "8:cjc058_5311"
    INDEX 01 03:15:59
  TRACK 145 AUDIO
    TITLE "0:"
    INDEX 01 03:18:33
  TRACK 146 AUDIO
    TITLE "9:cjc058_5312"
    INDEX 01 03:19:05
  TRACK 147 AUDIO
    TITLE "0:"
    INDEX 01 03:22:16
  TRACK 148 AUDIO
    TITLE "7:cjc058_5313"
    INDEX 01 03:23:21
  TRACK 149 AUDIO
    TITLE "0:"
    INDEX 01 03:25:00
  TRACK 150 AUDIO
    TITLE "8:cjc058_5314"
    INDEX 01 03:25:33
  TRACK 151 AUDIO
    TITLE "0:"
    INDEX 01 03:27:46
  TRACK 152 AUDIO
    TITLE "9:cjc058_5315"
    INDEX 01 03:28:18
  TRACK 153 AUDIO
    TITLE "0:"
    INDEX 01 03:31:60
  TRACK 154 AUDIO
    TITLE "7:cjc058_5316"
    INDEX 01 03:32:71
  TRACK 155 AUDIO
    TITLE "0:"
    INDEX 01 03:34:44
  TRACK 156 AUDIO
    TITLE "8:cjc058_5317"
    INDEX 01 03:35:04
  TRACK 157 AUDIO
    TITLE "0:"
    INDEX 01 03:36:43
  TRACK 158 AUDIO
    TITLE "9:cjc058_5318"
    INDEX 01 03:37:17
  TRACK 159 AUDIO
    TITLE "0:"
    INDEX 01 03:41:05
  TRACK 160 AUDIO
    TITLE "7:cjc058_5319"
    INDEX 01 03:42:16
  TRACK 161 AUDIO
    TITLE "0:"
    INDEX 01 03:43:53
  TRACK 162 AUDIO
    TITLE "8:cjc058_5320"
    INDEX 01 03:44:13
  TRACK 163 AUDIO
    TITLE "0:"
    INDEX 01 03:45:38
  TRACK 164 AUDIO
    TITLE "9:cjc058_5321"
    INDEX 01 03:46:12
  TRACK 165 AUDIO
    TITLE "0:"
    INDEX 01 03:50:41
  TRACK 166 AUDIO
    TITLE "7:cjc058_5322"
    INDEX 01 03:51:51
  TRACK 167 AUDIO
    TITLE "0:"
    INDEX 01 03:52:56
  TRACK 168 AUDIO
    TITLE "8:cjc058_5323"
    INDEX 01 03:53:16
  TRACK 169 AUDIO
    TITLE "0:"
    INDEX 01 03:55:44
  TRACK 170 AUDIO
    TITLE "9:cjc058_5324"
    INDEX 01 03:56:12
  TRACK 171 AUDIO
    TITLE "0:"
    INDEX 01 04:00:61
  TRACK 172 AUDIO
    TITLE "7:cjc058_5325"
    INDEX 01 04:01:70
  TRACK 173 AUDIO
    TITLE "0:"
    INDEX 01 04:03:22
  TRACK 174 AUDIO
    TITLE "8:cjc058_5326"
    INDEX 01 04:03:58
  TRACK 175 AUDIO
    TITLE "0:"
    INDEX 01 04:05:41
  TRACK 176 AUDIO
    TITLE "9:cjc058_5327"
    INDEX 01 04:06:11
  TRACK 177 AUDIO
    TITLE "0:"
    INDEX 01 04:11:59
  TRACK 178 AUDIO
    TITLE "7:cjc058_5328"
    INDEX 01 04:12:70
  TRACK 179 AUDIO
    TITLE "0:"
    INDEX 01 04:14:20
  TRACK 180 AUDIO
    TITLE "8:cjc058_5329"
    INDEX 01 04:14:57
  TRACK 181 AUDIO
    TITLE "0:"
    INDEX 01 04:16:17
  TRACK 182 AUDIO
    TITLE "9:cjc058_5330"
    INDEX 01 04:16:64
  TRACK 183 AUDIO
    TITLE "0:"
    INDEX 01 04:21:71
  TRACK 184 AUDIO
    TITLE "7:cjc058_5331"
    INDEX 01 04:23:05
  TRACK 185 AUDIO
    TITLE "0:"
    INDEX 01 04:25:00
  TRACK 186 AUDIO
    TITLE "8:cjc058_5332"
    INDEX 01 04:25:36
  TRACK 187 AUDIO
    TITLE "0:"
    INDEX 01 04:27:39
  TRACK 188 AUDIO
    TITLE "9:cjc058_5333"
    INDEX 01 04:28:11
  TRACK 189 AUDIO
    TITLE "0:"
    INDEX 01 04:33:02
  TRACK 190 AUDIO
    TITLE "7:cjc058_5334"
    INDEX 01 04:34:11
  TRACK 191 AUDIO
    TITLE "0:"
    INDEX 01 04:36:14
  TRACK 192 AUDIO
    TITLE "8:cjc058_5335"
    INDEX 01 04:36:51
  TRACK 193 AUDIO
    TITLE "0:"
    INDEX 01 04:39:38
  TRACK 194 AUDIO
    TITLE "9:cjc058_5336"
    INDEX 01 04:40:12
  TRACK 195 AUDIO
    TITLE "0:"
    INDEX 01 04:43:71
  TRACK 196 AUDIO
    TITLE "7:cjc058_5337"
    INDEX 01 04:45:07
  TRACK 197 AUDIO
    TITLE "0:"
    INDEX 01 04:46:26
  TRACK 198 AUDIO
    TITLE "8:cjc058_5338"
    INDEX 01 04:46:61
  TRACK 199 AUDIO
    TITLE "0:"
    INDEX 01 04:48:07
  TRACK 200 AUDIO
    TITLE "9:cjc058_5339"
    INDEX 01 04:48:54
  TRACK 201 AUDIO
    TITLE "0:"
    INDEX 01 04:53:61
  TRACK 202 AUDIO
    TITLE "7:cjc058_5340"
    INDEX 01 04:54:71
  TRACK 203 AUDIO
    TITLE "0:"
    INDEX 01 04:56:28
  TRACK 204 AUDIO
    TITLE "8:cjc058_5341"
    INDEX 01 04:56:64
  TRACK 205 AUDIO
    TITLE "0:"
    INDEX 01 04:59:17
  TRACK 206 AUDIO
    TITLE "9:cjc058_5342"
    INDEX 01 04:59:64
  TRACK 207 AUDIO
    TITLE "0:"
    INDEX 01 05:02:00
  TRACK 208 AUDIO
    TITLE "7:cjc058_5343"
    INDEX 01 05:03:09
  TRACK 209 AUDIO
    TITLE "0:"
    INDEX 01 05:04:42
  TRACK 210 AUDIO
    TITLE "8:cjc058_5344"
    INDEX 01 05:05:02
  TRACK 211 AUDIO
    TITLE "0:"
    INDEX 01 05:07:15
  TRACK 212 AUDIO
    TITLE "9:cjc058_5345"
    INDEX 01 05:07:62
  TRACK 213 AUDIO
    TITLE "0:"
    INDEX 01 05:10:23
  TRACK 214 AUDIO
    TITLE "7:cjc058_5346"
    INDEX 01 05:11:30
  TRACK 215 AUDIO
    TITLE "0:"
    INDEX 01 05:13:05
  TRACK 216 AUDIO
    TITLE "8:cjc058_5347"
    INDEX 01 05:13:41
  TRACK 217 AUDIO
    TITLE "0:"
    INDEX 01 05:14:67
  TRACK 218 AUDIO
    TITLE "9:cjc058_5348"
    INDEX 01 05:15:38
  TRACK 219 AUDIO
    TITLE "0:"
    INDEX 01 05:19:24
  TRACK 220 AUDIO
    TITLE "7:cjc058_5349"
    INDEX 01 05:20:31
  TRACK 221 AUDIO
    TITLE "0:"
    INDEX 01 05:21:66
  TRACK 222 AUDIO
    TITLE "8:cjc058_5350"
    INDEX 01 05:22:26
  TRACK 223 AUDIO
    TITLE "0:"
    INDEX 01 05:24:17
  TRACK 224 AUDIO
    TITLE "9:cjc058_5351"
    INDEX 01 05:24:64
  TRACK 225 AUDIO
    TITLE "0:"
    INDEX 01 05:29:14
  TRACK 226 AUDIO
    TITLE "7:cjc058_5352"
    INDEX 01 05:30:25
  TRACK 227 AUDIO
    TITLE "0:"
    INDEX 01 05:32:32
  TRACK 228 AUDIO
    TITLE "8:cjc058_5353"
    INDEX 01 05:32:67
  TRACK 229 AUDIO
    TITLE "0:"
    INDEX 01 05:34:64
  TRACK 230 AUDIO
    TITLE "9:cjc058_5354"
    INDEX 01 05:35:36
  TRACK 231 AUDIO
    TITLE "0:"
    INDEX 01 05:39:60
  TRACK 232 AUDIO
    TITLE "7:cjc058_5355"
    INDEX 01 05:40:69
  TRACK 233 AUDIO
    TITLE "0:"
    INDEX 01 05:42:52
  TRACK 234 AUDIO
    TITLE "8:cjc058_5356"
    INDEX 01 05:43:12
  TRACK 235 AUDIO
    TITLE "0:"
    INDEX 01 05:44:49
  TRACK 236 AUDIO
    TITLE "9:cjc058_5357"
    INDEX 01 05:45:21
  TRACK 237 AUDIO
    TITLE "0:"
    INDEX 01 05:49:56
  TRACK 238 AUDIO
    TITLE "7:cjc058_5358"
    INDEX 01 05:50:65
  TRACK 239 AUDIO
    TITLE "0:"
    INDEX 01 05:52:56
  TRACK 240 AUDIO
    TITLE "8:cjc058_5359"
    INDEX 01 05:53:15
  TRACK 241 AUDIO
    TITLE "0:"
    INDEX 01 05:55:35
  TRACK 242 AUDIO
    TITLE "9:cjc058_5360"
    INDEX 01 05:56:07
  TRACK 243 AUDIO
    TITLE "0:"
    INDEX 01 05:58:24
  TRACK 244 AUDIO
    TITLE "7:cjc058_5361"
    INDEX 01 05:59:33
  TRACK 245 AUDIO
    TITLE "0:"
    INDEX 01 06:00:68
  TRACK 246 AUDIO
    TITLE "8:cjc058_5362"
    INDEX 01 06:01:28
  TRACK 247 AUDIO
    TITLE "0:"
    INDEX 01 06:04:46
  TRACK 248 AUDIO
    TITLE "9:cjc058_5363"
    INDEX 01 06:05:20
  TRACK 249 AUDIO
    TITLE "0:"
    INDEX 01 06:10:17
  TRACK 250 AUDIO
    TITLE "7:cjc058_5364"
    INDEX 01 06:11:26
  TRACK 251 AUDIO
    TITLE "0:"
    INDEX 01 06:13:29
  TRACK 252 AUDIO
    TITLE "8:cjc058_5365"
    INDEX 01 06:13:64
  TRACK 253 AUDIO
    TITLE "0:"
    INDEX 01 06:17:74
  TRACK 254 AUDIO
    TITLE "9:cjc058_5366"
    INDEX 01 06:18:50
  TRACK 255 AUDIO
    TITLE "0:"
    INDEX 01 06:23:59
